<?xml version="1.0" encoding="utf-8"?>
<!-- Generator: Adobe Illustrator 28.3.0, SVG Export Plug-In . SVG Version: 6.00 Build 0)  -->
<svg version="1.1" id="Layer_1" xmlns="http://www.w3.org/2000/svg" xmlns:xlink="http://www.w3.org/1999/xlink" x="0px" y="0px"
	 viewBox="0 0 300 300" style="enable-background:new 0 0 300 300;" xml:space="preserve">
<style type="text/css">
	.st0{fill:#1F3D4E;}
</style>
<g>
	<path class="st0" d="M220.8,275c-8.6,0-16.9,0-25.4,0c-0.7-2.5-1.4-4.9-1.9-7.4c-0.6-2.6-1.7-4.9-3.2-7.2
		c-13.1-20.1-26.2-40.2-39.3-60.2c-0.3-0.4-0.5-0.8-0.9-1.3c-2,3.1-3.9,6-5.9,8.9c-12,18.4-24,36.7-36,55.1c-0.4,0.6-0.7,1.3-0.8,2
		c-0.8,3.1-1.6,6.2-2.3,9.3c-0.1,0.6-0.4,0.9-1,0.8c-8.1,0-16.1,0-24.2,0c-0.1,0-0.2,0-0.3-0.1c0-0.3,0-0.6,0.1-0.9
		c7.6-29.7,15.3-59.4,22.9-89c3.9-15.3,7.9-30.6,11.8-45.9c0.3-1.2,0.8-1.6,2.1-1.6c7.5,0.1,14.9,0,22.4,0c0.4,0,0.9,0,1.5,0
		c-0.7,2.6-1.3,4.9-1.9,7.3c-0.8,2.9-1.5,5.7-2.2,8.6c-0.1,0.5,0,1.3,0.3,1.8c4.4,6.8,8.9,13.6,13.3,20.4c0.1,0.1,0.2,0.3,0.4,0.5
		c0.3-0.4,0.6-0.8,0.8-1.2c4.3-6.5,8.5-13.1,12.8-19.6c0.4-0.7,0.5-1.3,0.3-2c-1.3-5.2-2.7-10.4-4-15.7c8.5,0,16.9,0,25.4,0
		C197.2,183.3,209,229.1,220.8,275z M182.4,225.6c0.1,0,0.2-0.1,0.2-0.1c-4.7-18.2-9.4-36.4-14.1-54.8c-0.4,0.5-0.6,0.7-0.8,1
		c-3.2,4.9-6.4,9.9-9.6,14.8c-0.5,0.8-0.5,1.3,0,2c6.3,9.5,12.5,19.1,18.7,28.6C178.7,220,180.5,222.8,182.4,225.6z M117.5,225.7
		c0.1,0,0.1,0.1,0.2,0.1c0.2-0.2,0.4-0.5,0.5-0.7c8-12.2,15.9-24.5,23.9-36.7c0.4-0.6,0.4-1.1,0-1.7c-3.3-5-6.6-10.1-9.9-15.2
		c-0.1-0.2-0.3-0.3-0.5-0.6C126.9,189.2,122.2,207.5,117.5,225.7z"/>
	<path class="st0" d="M175.7,100c0.6,0,1.1,0,1.5,0c17.5,0,35.1,0,52.6,0c1,0,1.5,0.3,1.9,1.2c4.9,10.1,9.8,20.2,14.7,30.3
		c0.1,0.1,0.1,0.3,0.2,0.6c-7.3,3.7-14.6,7.4-22,11.1c-1.1-2.3-2.2-4.5-3.3-6.7c-1.7-3.5-3.4-7.1-5.1-10.6c-0.3-0.7-0.7-0.9-1.5-0.9
		c-43.3,0-86.5,0-129.8,0c-0.8,0-1.2,0.3-1.5,1c-2.6,5.4-5.3,10.7-8,16c-0.2,0.3-0.3,0.6-0.6,1c-7.3-3.7-14.6-7.4-21.9-11.1
		c1.1-2.2,2.1-4.3,3.1-6.4c4-8.2,8-16.3,12-24.5c0.4-0.8,0.9-1.1,1.7-1.1c17.7,0,35.3,0,53,0c1,0,1.4-0.3,1.7-1.3
		c3-11.7,6-23.3,9-35c0.2-0.9,0.6-1.3,1.6-1.3c9.8,0,19.6,0,29.4,0c1,0,1.3,0.3,1.6,1.3c3,11.7,6,23.3,9,35
		C175.5,99.1,175.6,99.5,175.7,100z"/>
	<path class="st0" d="M195.6,68.1c-2.1-4.2-4.1-8.4-6.1-12.5c-0.7-1.5-1.5-2.9-2.1-4.4c-0.4-0.9-0.9-1.1-1.8-1.1
		c-19.7,0-39.5,0-59.2,0c-3.9,0-7.8,0-11.8,0c-0.9,0-1.3,0.2-1.7,1.1c-2.6,5.5-5.3,10.9-8,16.4c-0.1,0.2-0.2,0.3-0.4,0.7
		c-7.3-3.7-14.5-7.5-21.8-11.3c1.4-2.8,2.7-5.5,4-8.3c3.6-7.4,7.2-14.8,10.7-22.3c0.5-1.1,1.1-1.4,2.2-1.4c33.7,0,67.4,0,101,0
		c1,0,1.5,0.3,1.9,1.2c4.9,10,9.7,20,14.6,30c0.1,0.2,0.2,0.4,0.3,0.8C210.2,60.6,203,64.3,195.6,68.1z"/>
</g>
</svg>
