<?xml version="1.0" encoding="utf-8"?>
<!-- Generator: Adobe Illustrator 28.2.0, SVG Export Plug-In . SVG Version: 6.00 Build 0)  -->
<svg version="1.1" id="Layer_1" xmlns="http://www.w3.org/2000/svg" xmlns:xlink="http://www.w3.org/1999/xlink" x="0px" y="0px"
	 viewBox="0 0 300 300" style="enable-background:new 0 0 300 300;" xml:space="preserve">
<style type="text/css">
	.st0{fill:#798083;}
</style>
<g>
	<path class="st0" d="M175.9,202.9c0,8.7,0,16.7,0,24.8c10.4,1.6,20.6,3.2,30.8,4.6c11.4,1.7,13.8,9.3,14.5,18.3
		c0.4,5.1,0.2,10.2,0,15.3c-0.1,6.1-3.4,9.5-9.3,9.5c-41.2,0-82.4,0-123.6,0c-6.1,0-9.4-3.5-9.3-9.5c0.2-7.1,0.1-14.2,1-21.2
		c1.1-8.5,7.8-12,14.8-13c9.8-1.4,19.6-2.7,29.5-4c0-8.2,0-16.2,0-24.9c-1.7,0-3.3,0-4.9,0c-25.4,0-50.8,0.3-76.2-0.1
		c-14.4-0.2-19.9-9.4-18-22.7c1.1-7.1,1.8-14.2,2.6-21.3c1.2-10,2.4-20,3.6-30c0.8-6.5,1.3-13.1,2.1-19.6c1.2-10,2.5-20,3.6-29.9
		c0.8-6.7,1.3-13.4,2-20.1s0.8-13.5,2.1-20.1c2.2-10.8,7.7-14.6,18.3-14.7c60.4-0.3,120.8-0.3,181.2-0.1
		c11.5,0.1,17.4,5.7,18.7,16.9c1.8,15.5,3.1,31,4.8,46.5c1.5,13.8,3,27.6,4.7,41.4c1.8,14.8,3.9,29.6,5.5,44.4
		c0.6,5.7,1.7,11.9,0.1,17.2c-2.6,9.2-7.5,11.8-18.2,12c-24.9,0.3-49.9,0.1-74.8,0.1C179.6,202.9,178,202.9,175.9,202.9z
		 M260.7,187.9c-5.6-49.8-11.1-99.1-16.6-148.3c-62.9,0-125.4,0-188,0C50.6,89.1,45,138.4,39.4,187.9
		C112.9,187.9,186.2,187.9,260.7,187.9z M139.5,203.1c0,9.6-0.3,19,0.1,28.4c0.2,6.3-2.4,9.5-9.9,10.5c-11.9,1.5-23.7,3.3-35.4,4.9
		c0,4.8,0,9.2,0,13.4c37.6,0,74.8,0,111.9,0c0-4.7,0-9,0-13.2c-11.1-1.7-21.8-4-32.6-4.9c-13.4-1.1-13-5.2-12.7-15.1
		c0.1-1.1,0-2.2,0-3.3c0-6.9,0-13.8,0-20.7C153.4,203.1,146.7,203.1,139.5,203.1z"/>
	<path class="st0" d="M149.7,175c-25.6,0-51.1,0-76.7,0c-11,0-13.2-2.7-11.6-13.5c0.8-5,1.4-10,1.8-15c1.1-13.3,1.9-26.6,2.9-39.9
		c1.2-15,2.5-29.9,3.7-44.8c0.7-8.2,2.3-9.6,10.6-9.6c45.9,0,91.7,0,137.5,0c10.9,0,11.8,0.7,12.6,11.4c0.8,9.5,1.2,19,2,28.5
		c1.1,12.6,2.5,25.2,3.6,37.9c0.8,8.9,1.3,17.7,2,26.6c0.2,3.7,0.8,7.3,0.9,11c0.1,5.3-2.2,7.5-7.4,7.5
		C204.2,175,176.9,175,149.7,175z M169.8,106.1c0-13.4,0-26.5,0-39.4c-13.4,0-26.4,0-39.4,0c0,13.3,0,26.3,0,39.4
		C143.6,106.1,156.6,106.1,169.8,106.1z M130.4,160.8c13.4,0,26.5,0,39.4,0c0-13.4,0-26.4,0-39.4c-13.3,0-26.3,0-39.4,0
		C130.4,134.6,130.4,147.5,130.4,160.8z M184.4,121.3c0,13.5,0,26.6,0,39.5c13.4,0,26.4,0,39.3,0c-1.2-13.4-2.3-26.4-3.4-39.5
		C208.1,121.3,196.4,121.3,184.4,121.3z M115,160.9c0-13.5,0-26.5,0-39.6c-11.8,0-23.2,0-35.2,0c-1.1,13.2-2.3,26.3-3.4,39.6
		C89.4,160.9,102,160.9,115,160.9z M219.2,106.1c-1.2-13.6-2.4-26.7-3.5-39.5c-11.2,0-21.3,0-31.3,0c0,13.4,0,26.4,0,39.5
		C196.2,106.1,207.6,106.1,219.2,106.1z M115.2,66.3c-9,0-17.5,0.2-26-0.1c-4.4-0.2-5.4,1.6-5.6,5.6c-0.4,9.5-1.2,19-1.9,28.4
		c-0.2,1.9-0.7,3.7-1.1,5.8c11.9,0,23.1,0,34.4,0C115.2,92.8,115.2,79.8,115.2,66.3z"/>
</g>
</svg>
