<?xml version="1.0" encoding="utf-8"?>
<!-- Generator: Adobe Illustrator 28.3.0, SVG Export Plug-In . SVG Version: 6.00 Build 0)  -->
<svg version="1.1" id="Layer_1" xmlns="http://www.w3.org/2000/svg" xmlns:xlink="http://www.w3.org/1999/xlink" x="0px" y="0px"
	 viewBox="0 0 300 300" style="enable-background:new 0 0 300 300;" xml:space="preserve">
<style type="text/css">
	.st0{fill:none;stroke:#AAC760;stroke-width:4;stroke-linecap:round;stroke-linejoin:round;stroke-miterlimit:10;}
	.st1{fill:none;stroke:#AAC760;stroke-linecap:round;stroke-linejoin:round;stroke-miterlimit:10;}
	.st2{fill:#AAC760;}
</style>
<g>
	<g>
		<g>
			<polygon class="st0" points="255.1,78.1 136.9,146.3 44.9,93.2 163.1,25 			"/>
			<g>
				<polyline class="st0" points="59.8,219.6 44.9,211 44.9,93.2 136.9,146.3 136.9,264.1 122,255.5 				"/>
				<line class="st0" x1="44.9" y1="102.1" x2="136.9" y2="155.2"/>
				<polygon class="st0" points="122,146.6 136.9,155.2 136.9,264.1 122,255.5 				"/>
				<polygon class="st0" points="44.9,102.1 59.8,110.7 59.8,219.6 44.9,211 				"/>
				<polygon class="st0" points="136.9,275 122,266.4 122,255.5 136.9,264.1 				"/>
				<polygon class="st0" points="59.8,230.5 44.9,221.9 44.9,211 59.8,219.6 				"/>
			</g>
			<g>
				<polygon class="st0" points="255.1,195.9 136.9,264.1 136.9,146.3 255.1,78.1 				"/>
				<line class="st0" x1="136.9" y1="155.2" x2="255.1" y2="87"/>
				<polygon class="st0" points="151.8,266.4 136.9,275 136.9,264.1 151.8,255.5 				"/>
				<polygon class="st0" points="255.1,206.8 240.2,215.4 240.2,204.5 255.1,195.9 				"/>
				<polygon class="st0" points="225.3,224 166.7,257.8 166.7,246.9 225.3,213.1 				"/>
				<polygon class="st0" points="159.4,154.9 159.4,161.1 166.7,156.8 166.7,163.3 159.4,167.6 159.4,195.5 166.7,191.2 
					166.7,197.8 159.4,202 159.4,208.1 240.2,161.5 240.2,108.3 				"/>
				<path class="st0" d="M230.7,145l1.7-1c1.4-0.8,2.6-2.9,2.6-4.5V137c0-1.7-1.2-2.4-2.6-1.5l-1.7,1c-1,0.6-1.8,1.7-2.3,2.9
					l-0.6,1.6c-0.4,1.2-0.4,2.2,0,2.9l0.6,0.9C228.8,145.4,229.7,145.5,230.7,145z"/>
				<path class="st0" d="M166.7,163.3l-9.6,5.5v-6.5l9.6-5.5V163.3z M166.7,191.2l-9.6,5.5v6.5l9.6-5.5V191.2z"/>
			</g>
			<polygon class="st0" points="73.2,222.8 59.8,230.5 59.8,219.6 63.9,217.5 			"/>
			<polygon class="st0" points="240.2,215.4 230.7,210 240.2,204.5 			"/>
			<polygon class="st0" points="166.7,257.8 157.3,252.4 166.7,246.9 			"/>
			<g>
				<line class="st0" x1="63.9" y1="153.8" x2="122.1" y2="187.4"/>
				<polygon class="st0" points="122,235.8 63.9,202.3 63.9,217.5 122,251 				"/>
			</g>
			<path class="st0" d="M63.8,113"/>
			<g>
				<polygon class="st0" points="122,204.4 62,169.8 62,157.5 122.1,192.2 				"/>
				<polyline class="st0" points="62,157.5 63.9,153.8 63.9,113 				"/>
				<line class="st0" x1="63.9" y1="202.3" x2="63.9" y2="170.8"/>
			</g>
		</g>
	</g>
	<path class="st1" d="M102.3,166.5l-14.6-8.4c-2.3-1.3-4.2-4.9-4.2-7.9v-15.3c0-3.1,1.9-4.5,4.2-3.1l14.6,8.4
		c2.3,1.3,4.2,4.9,4.2,7.9v15.3C106.5,166.5,104.6,167.9,102.3,166.5z"/>
	<g>
		<path class="st1" d="M79.4,218.8c0,1.8-1.3,2.6-2.9,1.7s-2.9-3.1-2.9-5s1.3-2.6,2.9-1.7S79.4,217,79.4,218.8z"/>
		<path class="st1" d="M88.7,224.1c0,1.8-1.3,2.6-2.9,1.7c-1.6-0.9-2.9-3.1-2.9-5c0-1.8,1.3-2.6,2.9-1.7
			C87.4,220.1,88.7,222.3,88.7,224.1z"/>
		<path class="st1" d="M97.9,229.5c0,1.8-1.3,2.6-2.9,1.7s-2.9-3.1-2.9-5s1.3-2.6,2.9-1.7S97.9,227.6,97.9,229.5z"/>
		<path class="st1" d="M107.1,234.8c0,1.8-1.3,2.6-2.9,1.7s-2.9-3.1-2.9-5c0-1.8,1.3-2.6,2.9-1.7S107.1,233,107.1,234.8z"/>
		<path class="st1" d="M116.3,240.1c0,1.8-1.3,2.6-2.9,1.7c-1.6-0.9-2.9-3.1-2.9-5s1.3-2.6,2.9-1.7
			C115.1,236.1,116.3,238.3,116.3,240.1z"/>
	</g>
	<g>
		<path class="st2" d="M85.5,197.2l-1.9-1.1c-0.2-0.1-0.3,0-0.3,0.2v5.5c0,0.2,0.1,0.5,0.3,0.6l0.3,0.2c0.2,0.1,0.3,0,0.3-0.2V201
			l1.2,0.7c1.6,0.9,2.2,0.1,2.2-0.9c0-0.6-0.2-1.3-0.5-1.9C86.8,198.2,86.2,197.6,85.5,197.2z M86.7,200.2c0,0.3-0.1,0.5-0.2,0.6
			c-0.2,0.1-0.6,0.1-1-0.2l-1.2-0.7v-2.4l1.2,0.7C86.1,198.6,86.7,199.4,86.7,200.2z"/>
		<path class="st2" d="M91.4,200.5L91.4,200.5c-0.3-0.2-0.6-0.4-0.9-0.5c-1.3-0.5-2.2,0.2-2.2,1.8c0,1.9,1.1,3.9,2.7,4.9
			c1.5,0.9,2.7,0.1,2.7-1.7C93.7,203.4,92.7,201.5,91.4,200.5z M92.7,204.4c0,1.3-0.7,1.8-1.7,1.2c-1-0.6-1.7-1.9-1.7-3.1
			c0-1.1,0.5-1.6,1.4-1.2c0.1,0,0.2,0.1,0.3,0.2c0.1,0.1,0.2,0.1,0.3,0.2C92.1,202.2,92.7,203.3,92.7,204.4z"/>
		<path class="st2" d="M105.5,212.8c0.8,0.2,1.2-0.3,1.2-1.2c0-0.6-0.2-1.3-0.6-1.9c-0.4-0.6-1-1.2-1.7-1.6l-1.8-1.1l-0.2-0.1
			c-0.2-0.1-0.3,0-0.3,0.2v5.5c0,0.2,0.1,0.5,0.3,0.6l0.4,0.2c0.2,0.1,0.3,0,0.3-0.2v-1.7l1.2,0.7l1.6,2.8c0.1,0.1,0.1,0.2,0.2,0.3
			l0.4,0.2c0.3,0.2,0.4-0.1,0.2-0.5L105.5,212.8z M105.7,211c0,0.2-0.1,0.4-0.2,0.5c-0.2,0.1-0.6,0-1-0.2l-1.4-0.8v-2.1l1.4,0.8
			C105.2,209.7,105.7,210.4,105.7,211L105.7,211z"/>
		<path class="st2" d="M100.5,206.1l-1.3,3.4l-1.1-4.3c0-0.2-0.2-0.3-0.3-0.4l-0.3-0.2c-0.1-0.1-0.3,0-0.3,0.1l-1.1,3l-1.3-5
			c0-0.2-0.2-0.3-0.3-0.4l-0.4-0.2c-0.2-0.1-0.4,0-0.3,0.3l1.8,6.6c0,0.2,0.2,0.3,0.3,0.4l0.5,0.3c0.1,0.1,0.3,0,0.3-0.1l1.1-2.8
			l1.1,4.1c0,0.2,0.2,0.3,0.3,0.4l0.5,0.3c0.1,0.1,0.2,0,0.3-0.1l1.8-4.6c0.1-0.2-0.1-0.5-0.3-0.7l-0.4-0.2
			C100.7,205.9,100.6,206,100.5,206.1z"/>
		<path class="st2" d="M111.6,217.7c0-0.2-0.1-0.4-0.3-0.5l-1.6-0.9l-0.4-0.2l0.4-0.1l0.9-0.3c0.6-0.2,1-0.8,0.8-1.7
			c-0.2-1.2-0.9-2.4-1.9-2.9c-1.1-0.6-1.8-0.4-1.9,0.6l0,0.2c0,0.2,0.1,0.4,0.3,0.6l0.3,0.2c0.2,0.1,0.3,0.1,0.4-0.1l0-0.2
			c0.1-0.5,0.4-0.6,1-0.3c0.6,0.3,0.9,0.8,1,1.4c0.1,0.5-0.1,0.8-0.5,0.9c-0.1,0-0.2,0.1-0.4,0.1c-0.2,0.1-1.5,0.4-1.9,0.6
			c-0.1,0-0.1,0.1-0.1,0.2l0,0.4c0,0.2,0.2,0.5,0.3,0.6l3.3,1.9c0.2,0.1,0.3,0,0.3-0.2L111.6,217.7z"/>
		<g>
			<path class="st2" d="M78.9,198.3l-0.1-0.1c-0.2-0.3-0.2-0.6,0-0.7l1-0.5l-1-1.6c-0.2-0.3-0.2-0.6,0-0.7l0.1,0
				c0.2-0.1,0.4,0.1,0.6,0.3l1.3,2.2c0.2,0.3,0.2,0.6,0,0.7l-1.3,0.7C79.3,198.7,79.1,198.6,78.9,198.3z"/>
			<path class="st2" d="M77.2,196.9l-0.1-0.1c-0.2-0.3-0.2-0.6,0-0.7l0.6-0.3l-0.6-1c-0.2-0.3-0.2-0.6,0-0.7l0.1,0
				c0.2-0.1,0.4,0.1,0.6,0.3l0.9,1.6c0.2,0.3,0.2,0.6,0,0.7l-0.9,0.5C77.6,197.3,77.3,197.2,77.2,196.9z"/>
			<path class="st2" d="M75.8,199.1l-3.1-5.4c-0.4-0.7-0.4-1.5,0-1.7l3.1-1.8c0.4-0.2,1.1,0.1,1.5,0.8l1.2,2c0.2,0.3,0.2,0.6,0,0.7
				l-0.1,0c-0.2,0.1-0.4-0.1-0.6-0.3l-0.9-1.6c-0.2-0.3-0.4-0.5-0.6-0.4l-2.7,1.5c-0.2,0.1-0.2,0.4,0,0.7l2.7,4.6
				c0.2,0.3,0.4,0.5,0.6,0.4l0.9-0.5c0.2-0.1,0.4,0.1,0.6,0.3l0.1,0.1c0.2,0.3,0.2,0.6,0,0.7l-1.2,0.7
				C76.8,200.2,76.2,199.8,75.8,199.1z"/>
		</g>
	</g>
</g>
</svg>
