<?xml version="1.0" encoding="utf-8"?>
<!-- Generator: Adobe Illustrator 28.2.0, SVG Export Plug-In . SVG Version: 6.00 Build 0)  -->
<svg version="1.1" id="Layer_1" xmlns="http://www.w3.org/2000/svg" xmlns:xlink="http://www.w3.org/1999/xlink" x="0px" y="0px"
	 viewBox="0 0 300 300" style="enable-background:new 0 0 300 300;" xml:space="preserve">
<style type="text/css">
	.st0{fill:#FFCE00;}
</style>
<g>
	<path class="st0" d="M142.9,260.3c0-7.2,0-13.9,0-21.4c-1.6,0-3.3,0-4.9,0c-25.5,0-51,0-76.6,0c-7.7,0-10.3-3.4-8.4-11
		c5.6-22.9,11.2-45.8,16.8-68.7c1.3-5.4,4.1-7.5,9.7-7.5c46.9,0,93.7,0,140.5,0c6.2,0,8.1,1.4,9.7,7.3c6,23.7,12,47.4,18,71.2
		c1.2,4.7-2.2,8.7-7.4,8.8c-9.1,0.1-18.2,0-27.4,0c-16.9,0-33.7,0-50.6,0c-1.7,0-3.3,0-5.2,0c0,7.2,0,13.9,0,21.4c1.4,0,2.9,0,4.3,0
		c11,0,21.9,0,32.9,0c5,0,8,2.9,7.9,7.5c0,4.5-3,7.4-8,7.4c-29.5,0-59.1,0-88.6,0c-5.2,0-8.3-2.6-8.3-7c0-5.2,2.9-7.8,8.5-7.8
		C118.3,260.3,130.5,260.3,142.9,260.3z M142.7,223.9c0-7.3,0-14.1,0-21.2c-22.1,0-43.9,0-65.8,0.1c-1.2,0-3.1,1.4-3.4,2.5
		c-1.8,6.1-3.1,12.2-4.7,18.5C93.7,223.9,118.1,223.9,142.7,223.9z M231,224c-1.5-5.8-3.3-11.3-4.2-16.9c-0.6-3.5-2-4.5-5.3-4.4
		c-20.1,0.1-40.1,0.1-60.2,0.1c-1.3,0-2.7,0.2-3.9,0.2c0,7.2,0,14,0,21C181.9,224,206.2,224,231,224z M142.7,187.8
		c0-6.9,0-13.8,0-21c-20,0-39.8,0-59.6,0c-1.7,7-3.4,13.8-5.2,21C99.8,187.8,121.1,187.8,142.7,187.8z M157.3,187.7
		c21.9,0,43.1,0,64.7,0c-1.6-5.9-3.5-11.5-4.4-17.3c-0.5-3.4-2-3.9-4.9-3.9c-17.5,0.1-35,0-52.4,0c-1,0-2,0.2-3.1,0.4
		C157.3,174,157.3,180.7,157.3,187.7z"/>
	<path class="st0" d="M106.5,41.7c0.5-3.9,0.6-7.9,1.6-11.7c1-4.3,4.7-4.9,8.4-4.3c3.2,0.5,5.6,2.2,5.3,6.1
		c-0.4,6.5-1.8,12.9,0.8,19.3c4.8,11.9,15.9,21.3,32.4,18.8c10.9-1.6,21.3-9.9,23.2-24.7c0.5-3.6,0.1-7.4-0.3-11.1
		c-0.4-3.4,1.4-7.7,4.2-8.5c4.5-1.3,9.2,0.9,10.1,5.2c2.7,13.1,1,25.5-7,36.5c-16,21.9-48.3,23.9-67,4.3
		C112.6,65.7,105.7,53.7,106.5,41.7z"/>
	<path class="st0" d="M214.6,97.8c-0.1,6.6-2.3,8.7-7.6,8.5c-5.4-0.2-13.3-8.6-12.7-14c0.2-2,1.6-4.7,3.1-5.3c2.4-0.9,6-1.3,8.1-0.1
		c3.2,1.8,5.7,5.1,8.2,7.9C214.5,95.8,214.5,97.5,214.6,97.8z"/>
	<path class="st0" d="M72.8,49.1c-2.7-0.4-5.6-0.3-7.9-1.3c-3.2-1.5-4.1-4.8-3.4-8.3c0.8-3.6,3.6-5.2,7-5.5c2.9-0.3,5.9-0.3,8.8,0
		c5.2,0.4,7.6,3.3,7.4,8.4c-0.2,4.4-2.7,6.3-8.1,6.4c-1.3,0-2.5,0-3.7,0C72.8,48.8,72.8,49,72.8,49.1z"/>
	<path class="st0" d="M85.6,98.6c-0.8-4.5,3.4-5.9,5.6-8.6c1.9-2.2,3.7-4.6,7.5-4.3c5.5,0.5,8,3.1,7.2,8.6
		c-0.5,3.4-8.3,11.4-11.7,11.9C88.6,107.1,85.6,104.6,85.6,98.6z"/>
	<path class="st0" d="M226.8,48.7c-1.5,0-3.1,0-4.6,0c-3.8,0.1-6.2-1.6-6.6-5.4c-0.5-3.8-0.4-7.9,4.5-8.5c4.7-0.5,9.6-0.5,14.3,0.2
		c3.8,0.5,4.9,4,4.2,7.4c-0.7,3.4-2.3,6.3-6.6,6.2C230.2,48.7,228.5,48.7,226.8,48.7z"/>
	<path class="st0" d="M143.1,118c0-1.6,0-3.1,0-4.7c0.1-3.9,2.9-6.9,6.8-7.1c3.7-0.2,7,2.8,7.1,6.8c0.2,3.7,0.2,7.4,0,11.1
		c-0.2,4.1-3.2,5.7-6.8,6.1c-3.5,0.4-6.9-2.8-7.1-6.3C143.1,122,143.1,120.1,143.1,118z"/>
</g>
</svg>
