<?xml version="1.0" encoding="utf-8"?>
<!-- Generator: Adobe Illustrator 28.2.0, SVG Export Plug-In . SVG Version: 6.00 Build 0)  -->
<svg version="1.1" id="Layer_1" xmlns="http://www.w3.org/2000/svg" xmlns:xlink="http://www.w3.org/1999/xlink" x="0px" y="0px"
	 viewBox="0 0 300 300" style="enable-background:new 0 0 300 300;" xml:space="preserve">
<style type="text/css">
	.st0{fill:#798083;}
</style>
<g>
	<path class="st0" d="M65.5,61.4c0-6.6-0.1-12.8,0-18.9c0.2-7,3.1-12.7,9.5-16c1.7-0.8,3.8-1.2,5.7-1.2c9.9-0.1,19.8-0.1,29.7,0
		c8.7,0,15.2,6.4,15.4,15.3c0.1,6.8,0,13.6,0,21c4.4,0,8.6,0.4,12.6-0.1c6.1-0.8,14.2,6.9,14.3,14c0.1,13,0,26,0,39
		c0,4.1-2.8,5.8-6,6.4c-3.3,0.8-6.5-0.2-7.7-4c-0.7-2.1-1.1-4.5-1.2-6.7c-0.1-11.4,0-22.9,0-34.5c-28.3,0-56.1,0-84.2,0
		c0,61.4,0,122.7,0,184.4c27.9,0,55.8,0,84.2,0c0-10.5,0.1-20.8,0-31.2c-0.3-19.4,5.9-36.4,18.2-51.3c13-16,28.6-28.8,46.9-38.3
		c4.6-2.4,9.8-3.9,14.9-5.2c3.5-0.9,6.4,0.8,7.4,4.5c1.1,4.2-0.6,7.8-4.4,9.1c-12.7,4.4-23.5,11.8-34,19.9c-3.4,2.6-6.4,5.6-10,8.9
		c23.8,6.6,41.8-2.6,56.5-19.5c12.6-14.7,17.8-31.6,10.1-51c-11.3,7.6-24.2,9.8-37,12.2c-10.5,2-20.8,4.3-29.4,11.2
		c-6.1,4.8-9.3,11.5-12.1,18.4c-0.6,1.5-1.3,3.1-1.8,4.6c-1.3,4.2-4.4,5.6-8.2,4.7c-3.9-0.9-7.2-3.7-5.6-7.9c2.9-7.9,5.8-16,10.4-23
		c8.7-13.2,22.8-17.9,37.5-21c12.1-2.5,24.5-4.1,35.6-10.2c2.4-1.3,4.6-2.9,6.8-4.5c4.1-3,7.8-2.9,11.2,0.8c7,7.6,10,16.9,10.8,27
		c2.5,32-20.8,60.8-47.8,71c-15.8,6-31.1,6.2-46.9-0.9c-5.9,7.9-11.9,16.5-12.8,26.8c-1.2,14.2-0.9,28.7-1.1,43
		c-0.1,10.1-7.1,17.2-17.2,17.3c-26.3,0-52.7,0-78.9,0c-11.3,0-18.1-6.9-18.1-18.3c0-59.4,0-118.9,0-178.4c0-10.8,6.2-17,16.9-17
		C58.5,61.4,61.6,61.4,65.5,61.4z M110.7,61.2c0-7.5,0-14.7,0-21.7c-10.3,0-20.2,0-30.1,0c0,7.4,0,14.5,0,21.7
		C90.7,61.2,100.5,61.2,110.7,61.2z"/>
	<path class="st0" d="M96.4,124.6c4.4,0,8.5,0.4,12.4-0.1c3.6-0.4,6.1,1.5,7.1,4c0.9,2.2,0.6,5.8-0.6,7.8
		c-5.6,9-11.7,17.7-17.7,26.4c-2.7,3.9-6.9,4.8-10.6,2.5c-2.9-1.8-4-6.2-1.9-9.9c3.2-5.4,6.7-10.7,10.6-16.7c-5.1,0-9.5,0-13.9,0
		c-5,0-8.8-5.2-6.2-9.4c6.1-10.1,12.8-19.9,19.4-29.6c1.7-2.4,7.8-2.7,10.1-0.9c2.8,2.1,3.4,7.3,1.1,10.8c-2.6,4.1-5.4,8-8.2,12
		C97.3,122.3,97,123.3,96.4,124.6z"/>
	<path class="st0" d="M96.1,187.8c4.2,0,8.3,0,12.5,0c4.7,0,7.8,2.6,7.9,6.4c0.2,5-2.1,8.1-7.1,8.3c-9.1,0.4-18.3,0.3-27.4,0
		c-4.4-0.1-7.6-4.1-7.4-8.2c0.2-3.9,3.3-6.6,7.9-6.6C87.1,187.8,91.6,187.8,96.1,187.8z"/>
	<path class="st0" d="M96.1,224.1c4.2,0,8.3,0,12.5,0c4.7,0,7.8,2.6,7.9,6.4c0.2,5-2,8.1-7,8.3c-9.3,0.4-18.6,0.3-27.8,0
		c-4.2-0.1-7.1-4.1-6.9-8.1c0.2-4.1,3.3-6.6,8.3-6.6C87.4,224,91.8,224.1,96.1,224.1z"/>
</g>
</svg>
