<svg width="62" height="62" viewBox="0 0 62 62" fill="none" xmlns="http://www.w3.org/2000/svg">
<g clip-path="url(#clip0_1079_140)">
<path d="M16.9091 49.0364L12.9636 45.0909L7.04545 51.0091L10.9909 54.9545L16.9091 49.0364ZM33.8182 62H28.1818V53.5455H33.8182V62ZM0 28.1818H8.45455V33.8182H0V28.1818ZM25.3636 2.81818C25.3636 1.12728 26.4909 0 28.1818 0H33.8182C35.5091 0 36.6364 1.12728 36.6364 2.81818V5.63636H25.3636V2.81818ZM51.0091 54.9545L45.0909 49.0364L49.0364 45.0909L54.9545 51.0091L51.0091 54.9545ZM47.9091 31C47.9091 24.8 44.5273 19.1636 39.4545 16.3455V11.2727C39.4545 9.58182 38.3273 8.45455 36.6364 8.45455H25.3636C23.6727 8.45455 22.5455 9.58182 22.5455 11.2727V16.3455C17.4727 19.1636 14.0909 24.8 14.0909 31C14.0909 40.3 21.7 47.9091 31 47.9091C40.3 47.9091 47.9091 40.3 47.9091 31ZM20.1218 33.8182H41.8782C40.61 38.6655 36.2418 42.2727 31 42.2727C25.7582 42.2727 21.39 38.6655 20.1218 33.8182ZM53.5455 33.8182V28.1818H62V33.8182H53.5455Z" fill="#788085"/>
</g>
<defs>
<clipPath id="clip0_1079_140">
<rect width="62" height="62" fill="white" transform="matrix(1 0 0 -1 0 62)"/>
</clipPath>
</defs>
</svg>
