<?xml version="1.0" encoding="utf-8"?>
<!-- Generator: Adobe Illustrator 28.2.0, SVG Export Plug-In . SVG Version: 6.00 Build 0)  -->
<svg version="1.1" id="Layer_1" xmlns="http://www.w3.org/2000/svg" xmlns:xlink="http://www.w3.org/1999/xlink" x="0px" y="0px"
	 viewBox="0 0 300 300" style="enable-background:new 0 0 300 300;" xml:space="preserve">
<style type="text/css">
	.st0{fill:#798083;}
</style>
<g>
	<path class="st0" d="M202.5,152.2c19,0,37.4,0.2,55.8-0.1c8.8-0.2,16.4,6.6,16.5,16.1c0.1,15.6,0.5,31.2-0.1,46.8
		c-0.8,20.4-15.3,38.1-36.3,41c-3.1,0.5-6.3,0.9-9.5,0.9c-53.6,0-107.3,0.2-161,0c-21.8-0.1-37.6-14.4-42.6-35.3
		c-0.3-1.2-0.1-2.4-0.1-3.7c0-53.2,0-106.4,0-159.6c0-8.3,6.4-14.7,14.7-14.7c48.4,0,96.8,0.2,145.2-0.1c9.8,0,17.4,7.3,17.3,17.3
		c-0.1,28.6-0.1,57.2-0.1,85.8C202.5,148.3,202.5,149.9,202.5,152.2z M39.2,57.7c0,2.2,0,4,0,5.9c0,49,0,98,0,147c0,3,0.2,6.1,1,9
		c3.2,13.3,14.5,22.6,28.7,22.6c41.1-0.1,82.2,0,123.4,0c1.6,0,3.3,0,5.3,0c-0.4-1.1-0.5-1.9-0.9-2.5c-6.5-8-8.9-17.5-8.9-27.6
		c0-49.6,0-99.2,0-148.9c0-1.8,0-3.6,0-5.6C138,57.7,88.9,57.7,39.2,57.7z M202.5,166.2c0,1.9,0,3.4,0,4.9c0,13.7,0.1,27.5,0,41.2
		c-0.1,8.5,2.9,15.6,8.9,21.6c8,8.1,20.5,10.2,29.4,6.5c11.9-4.9,19.2-15.2,19.2-26.8c0-14.2,0-28.4,0-42.6c0-1.6,0-3.2,0-4.9
		C240.7,166.2,222,166.2,202.5,166.2z"/>
	<path class="st0" d="M113.4,175.4c-14.7,0-29.4,0-44.1,0c-5.5,0-7.6-1.6-7.9-6c-0.4-5.3,1.7-7.9,6.9-8.7c0.7-0.1,1.5-0.1,2.3-0.1
		c28.7,0,57.5,0,86.3,0c5.8,0,10.4,4.5,9.2,9.2c-1.1,4-4,5.7-8.2,5.7C143.1,175.3,128.3,175.4,113.4,175.4z"/>
	<path class="st0" d="M113.2,211.6c-14.5,0-29.1,0-43.6,0c-6,0-7.8-1.6-8.2-6.7c-0.4-4.9,2-7.1,7.7-8.1c0.4-0.1,0.9,0,1.4,0
		c28.9,0,57.8,0,86.7,0c5.7,0,10,4.2,9,8.9c-0.9,4.1-3.7,6-8,5.9C143.2,211.5,128.2,211.6,113.2,211.6z"/>
	<path class="st0" d="M136.2,103c-7.4,0-14.8,0-22.2,0c-5.3,0.1-7.1-2.6-7.9-7c-0.5-3.3,3.6-7.7,7.5-7.8c14.9-0.1,29.9-0.1,44.9,0
		c4.3,0.1,7.8,3.8,7.8,7.8s-3.2,6.9-7.9,6.9C151,103,143.6,103,136.2,103z"/>
	<path class="st0" d="M136,139.2c-7.2,0-14.5-0.1-21.7,0.1c-5.7,0.1-7.6-3-8.1-7.2c-0.4-3.6,3.9-7.6,8.2-7.6c14.5-0.1,29-0.1,43.5,0
		c4.9,0,8.6,3.6,8.5,8c-0.1,4.2-3.3,6.7-8.6,6.7C150.5,139.2,143.2,139.2,136,139.2z"/>
</g>
</svg>
