<svg width="62" height="62" viewBox="0 0 62 62" fill="none" xmlns="http://www.w3.org/2000/svg">
<path fill-rule="evenodd" clip-rule="evenodd" d="M46.1771 0V4.73611H39.3958V0H46.1771ZM46.4596 17.346L51.2065 12.3139L48.0419 8.99861L43.2385 13.9715L46.4596 17.346ZM62 21.3125V14.2083H57.4792V21.3125H62ZM25.1875 40.6875H46.5L44.5625 31H25.1875V40.6875ZM25.1875 27.125H44.5625L41.6562 17.4375H25.1875V27.125ZM0 40.6875H21.3125V31H1.9375L0 40.6875ZM1.9375 27.125H21.3125V17.4375H4.84375L1.9375 27.125ZM25.1873 48.4375L25.2357 44.5625H21.3123V48.4375H6.78105V53.2812H-0.000190735V57.1562H6.78105L6.78086 62H40.6871L40.6849 57.1562H62L61.9998 53.2812H40.6849V48.4375H25.1873ZM35.8436 57.1562V53.2812H21.3123V57.1562H35.8436ZM14.5311 57.1562V53.2812H10.6561V57.1562H14.5311ZM50.375 0C50.375 6.42031 55.5797 11.625 62 11.625V0H50.375Z" fill="#788085"/>
</svg>
