<svg width="62" height="63" viewBox="0 0 62 63" fill="none" xmlns="http://www.w3.org/2000/svg">
<path fill-rule="evenodd" clip-rule="evenodd" d="M46.1771 0.5V5.23611H39.3958V0.5H46.1771ZM46.4596 17.846L51.2065 12.8139L48.0419 9.49861L43.2385 14.4715L46.4596 17.846ZM62 21.8125V14.7083H57.4792V21.8125H62ZM25.1875 41.1875H46.5L44.5625 31.5H25.1875V41.1875ZM25.1875 27.625H44.5625L41.6562 17.9375H25.1875V27.625ZM0 41.1875H21.3125V31.5H1.9375L0 41.1875ZM1.9375 27.625H21.3125V17.9375H4.84375L1.9375 27.625ZM25.1873 48.9375L25.2357 45.0625H21.3123V48.9375H6.78105V53.7812H-0.000190735V57.6562H6.78105L6.78086 62.5H40.6871L40.6849 57.6562H62L61.9998 53.7812H40.6849V48.9375H25.1873ZM35.8436 57.6562V53.7812H21.3123V57.6562H35.8436ZM14.5311 57.6562V53.7812H10.6561V57.6562H14.5311ZM50.375 0.5C50.375 6.92031 55.5797 12.125 62 12.125V0.5H50.375Z" fill="#EA580C"/>
</svg>
