<svg width="62" height="62" viewBox="0 0 62 62" fill="none" xmlns="http://www.w3.org/2000/svg">
<g clip-path="url(#clip0_1079_138)">
<path d="M3.1 6.2V0H12.4V6.2H3.1ZM0 62H27.9V49.6H2.48L0 62ZM12.7875 22.7075L8.37 18.3675L14.9575 11.78L19.375 16.12L12.7875 22.7075ZM3.72 43.4H27.9V31H6.2L3.72 43.4ZM31 15.5C26.7117 15.5 23.0568 13.9882 20.0353 10.9647C17.0118 7.94323 15.5 4.28833 15.5 0H46.5C46.5 4.28833 44.9893 7.94323 41.9678 10.9647C38.9443 13.9882 35.2883 15.5 31 15.5ZM27.9 27.9V18.6H34.1V27.9H27.9ZM34.1 62H62L59.52 49.6H34.1V62ZM34.1 43.4H58.28L55.8 31H34.1V43.4ZM49.2125 22.7075L42.7025 16.12L47.0425 11.78L53.63 18.29L49.2125 22.7075ZM49.6 6.2V0H58.9V6.2H49.6Z" fill="#788085"/>
</g>
<defs>
<clipPath id="clip0_1079_138">
<rect width="62" height="62" fill="white"/>
</clipPath>
</defs>
</svg>
