<svg width="62" height="63" viewBox="0 0 62 63" fill="none" xmlns="http://www.w3.org/2000/svg">
<path d="M3.1 6.7V0.5H12.4V6.7H3.1ZM0 62.5H27.9V50.1H2.48L0 62.5ZM12.7875 23.2075L8.37 18.8675L14.9575 12.28L19.375 16.62L12.7875 23.2075ZM3.72 43.9H27.9V31.5H6.2L3.72 43.9ZM31 16C26.7117 16 23.0568 14.4882 20.0353 11.4647C17.0118 8.44323 15.5 4.78833 15.5 0.5H46.5C46.5 4.78833 44.9893 8.44323 41.9678 11.4647C38.9443 14.4882 35.2883 16 31 16ZM27.9 28.4V19.1H34.1V28.4H27.9ZM34.1 62.5H62L59.52 50.1H34.1V62.5ZM34.1 43.9H58.28L55.8 31.5H34.1V43.9ZM49.2125 23.2075L42.7025 16.62L47.0425 12.28L53.63 18.79L49.2125 23.2075ZM49.6 6.7V0.5H58.9V6.7H49.6Z" fill="#FBAF16"/>
</svg>
