<?xml version="1.0" encoding="UTF-8"?>
<svg id="Layer_1" data-name="Layer 1" xmlns="http://www.w3.org/2000/svg" version="1.1" viewBox="0 0 300 300">
  <defs>
    <style>
      .cls-1 {
        fill: #aac760;
        stroke-width: 0px;
      }
    </style>
  </defs>
  <path class="cls-1" d="M148.3,252.1l-5.5-5.5c-10-10-10-26,0-36l60.5-60.5-60.5-60.5c-10-10-10-26,0-36l5.5-5.5c10-10,26-10,36,0l82.6,82.6c10.7,10.7,10.7,28.1,0,38.8l-82.6,82.6c-10,9.9-26.1,9.9-36,0h0Z"/>
  <path class="cls-1" d="M38,229.9l-5.5-5.5c-10-10-10-26,0-36l38.4-38.4-38.4-38.4c-10-10-10-26,0-36l5.5-5.5c10-10,26-10,36,0l60.5,60.5c10.7,10.7,10.7,28.1,0,38.8l-60.5,60.5c-10,9.9-26.1,9.9-36,0h0Z"/>
</svg>