<svg width="105" height="76" viewBox="0 0 105 76" fill="none" xmlns="http://www.w3.org/2000/svg">
<path d="M16 13.0001L16 0.000143051L41 0V13.0001L64 13L64.0455 0.000143051L89 0V13H105V76.0002H0V13.0001H16Z" fill="#F0F0F1"/>
<path fill-rule="evenodd" clip-rule="evenodd" d="M64 13L41 13.0001V0L16 0.000143051L16 13.0001H0V76.0002H105V13H89V0L64.0455 0.000143051L64 13ZM66.0385 2.00013L65.993 15L39 15.0002V2.00001L18 2.00013L18 15.0001H2V74.0002H103V15H87V2.00001L66.0385 2.00013Z" fill="#D9D9D9"/>
<path d="M55 29L70 59H40L55 29Z" fill="white"/>
<path d="M44 57H66L55 34L44 57ZM56 54H54V52H56V54ZM56 50H54V43H56V50Z" fill="#EF4444"/>
</svg>
