<svg width="105" height="76" viewBox="0 0 105 76" fill="none" xmlns="http://www.w3.org/2000/svg">
<path d="M16 14.0001H17V13.0001L17 1.00014L40 1.00001V13.0001V14.0001L41 14.0001L64 14L64.9965 14L65 13.0035L65.042 1.00014L88 1.00001V13V14H89H104V75.0002H1V14.0001H16Z" fill="#F0F0F1" stroke="#D9D9D9" stroke-width="2"/>
<mask id="mask0_2015_3" style="mask-type:alpha" maskUnits="userSpaceOnUse" x="0" y="0" width="105" height="76">
<path d="M16 14.0001H17V13.0001L17 1.00014L40 1.00001V13.0001V14.0001L41 14.0001L64 14L64.9965 14L65 13.0035L65.042 1.00014L88 1.00001V13V14H89H104V75.0002H1V14.0001H16Z" fill="#F0F0F1" stroke="#D9D9D9" stroke-width="2"/>
</mask>
<g mask="url(#mask0_2015_3)">
<path d="M2 74V36H103V74H2Z" fill="#45BF55"/>
</g>
<path d="M16 14.0001H17V13.0001L17 1.00014L40 1.00001V13.0001V14.0001L41 14.0001L64 14L64.9965 14L65 13.0035L65.042 1.00014L88 1.00001V13V14H89H104V75.0002H1V14.0001H16Z" stroke="#D9D9D9" stroke-width="2"/>
<circle cx="53" cy="44" r="15" fill="white"/>
<path d="M52.35 54.4L58.668 41.751H54.3V33.6L47.8 46.249H52.35V54.4ZM53 31C56.575 31 59.63 32.3 62.165 34.835C64.7 37.37 66 40.425 66 44C66 47.575 64.7 50.63 62.165 53.165C59.63 55.7 56.575 57 53 57C49.425 57 46.37 55.7 43.835 53.165C41.3 50.63 40 47.575 40 44C40 40.425 41.3 37.37 43.835 34.835C46.37 32.3 49.425 31 53 31Z" fill="#45BF55"/>
</svg>
