<svg width="62" height="60" viewBox="0 0 62 60" fill="none" xmlns="http://www.w3.org/2000/svg">
<path d="M12.4 0.5V6.71053H6.2C2.79 6.71053 0 9.50526 0 12.9211V43.9737C0 47.3895 2.79 50.1842 6.2 50.1842V53.2895C6.2 56.7053 6.2 59.5 6.2 59.5H21.7C21.7 59.5 21.7 56.7053 21.7 53.2895C21.7 49.8737 21.7 50.1842 21.7 50.1842H40.3V53.2895C40.3 56.7053 40.3 59.5 40.3 59.5H55.8C55.8 59.5 55.8 56.7053 55.8 53.2895V50.1842C59.21 50.1842 62 47.3895 62 43.9737H27.9V6.71053H18.6V0.5H12.4ZM43.4 0.5V6.71053H34.1V12.9211H62C62 9.50526 59.21 6.71053 55.8 6.71053H49.6V0.5H43.4ZM15.5 12.9211V25.3421H21.7L12.4 43.9737V31.5526H6.2L15.5 12.9211ZM34.1 19.1316V25.3421H62V19.1316H34.1ZM34.1 31.5526V37.7632H62V31.5526H34.1Z" fill="#4180FF"/>
</svg>
