<svg width="62" height="59" viewBox="0 0 62 59" fill="none" xmlns="http://www.w3.org/2000/svg">
<path d="M12.4 0V6.21053H6.2C2.79 6.21053 0 9.00526 0 12.4211V43.4737C0 46.8895 2.79 49.6842 6.2 49.6842V52.7895C6.2 56.2053 6.2 59 6.2 59H21.7C21.7 59 21.7 56.2053 21.7 52.7895C21.7 49.3737 21.7 49.6842 21.7 49.6842H40.3V52.7895C40.3 56.2053 40.3 59 40.3 59H55.8C55.8 59 55.8 56.2053 55.8 52.7895V49.6842C59.21 49.6842 62 46.8895 62 43.4737H27.9V6.21053H18.6V0H12.4ZM43.4 0V6.21053H34.1V12.4211H62C62 9.00526 59.21 6.21053 55.8 6.21053H49.6V0H43.4ZM15.5 12.4211V24.8421H21.7L12.4 43.4737V31.0526H6.2L15.5 12.4211ZM34.1 18.6316V24.8421H62V18.6316H34.1ZM34.1 31.0526V37.2632H62V31.0526H34.1Z" fill="#788085"/>
</svg>
