<svg width="62" height="62" viewBox="0 0 62 62" fill="none" xmlns="http://www.w3.org/2000/svg">
<path d="M3.72002 12.478H27.9V0H6.19998L3.72002 12.478Z" fill="#788085"/>
<path d="M0 31.195H27.9V18.717H2.48003L0 31.195Z" fill="#788085"/>
<path d="M62 31.195H33.7125V18.717H59.52L62 31.195Z" fill="#788085"/>
<path d="M33.7125 12.478H58.2801L55.8 0H33.7125V12.478Z" fill="#788085"/>
<path fill-rule="evenodd" clip-rule="evenodd" d="M27.9 35.0879V47.9623H13.95V52.6415H0V57.3208H13.95V62H47.6625V57.3208H61.6125V52.6415H47.6625V47.9623H33.7125V35.0879H27.9ZM18.6 52.6415V57.3208H33.7125V52.6415H18.6ZM40.6875 52.6415V57.3208H45.3375V52.6415H40.6875Z" fill="#788085"/>
</svg>
