<svg width="62" height="63" viewBox="0 0 62 63" fill="none" xmlns="http://www.w3.org/2000/svg">
<g clip-path="url(#clip0_533_208)">
<path d="M16.9091 49.5364L12.9636 45.5909L7.04545 51.5091L10.9909 55.4545L16.9091 49.5364ZM33.8182 62.5H28.1818V54.0455H33.8182V62.5ZM0 28.6818H8.45455V34.3182H0V28.6818ZM25.3636 3.31818C25.3636 1.62728 26.4909 0.5 28.1818 0.5H33.8182C35.5091 0.5 36.6364 1.62728 36.6364 3.31818V6.13636H25.3636V3.31818ZM51.0091 55.4545L45.0909 49.5364L49.0364 45.5909L54.9545 51.5091L51.0091 55.4545ZM47.9091 31.5C47.9091 25.3 44.5273 19.6636 39.4545 16.8455V11.7727C39.4545 10.0818 38.3273 8.95455 36.6364 8.95455H25.3636C23.6727 8.95455 22.5455 10.0818 22.5455 11.7727V16.8455C17.4727 19.6636 14.0909 25.3 14.0909 31.5C14.0909 40.8 21.7 48.4091 31 48.4091C40.3 48.4091 47.9091 40.8 47.9091 31.5ZM20.1218 34.3182H41.8782C40.61 39.1655 36.2418 42.7727 31 42.7727C25.7582 42.7727 21.39 39.1655 20.1218 34.3182ZM53.5455 34.3182V28.6818H62V34.3182H53.5455Z" fill="#FF2966"/>
</g>
<defs>
<clipPath id="clip0_533_208">
<rect width="62" height="62" fill="white" transform="matrix(1 0 0 -1 0 62.5)"/>
</clipPath>
</defs>
</svg>
