<svg width="42" height="42" viewBox="0 0 42 42" fill="none" xmlns="http://www.w3.org/2000/svg">
<circle cx="21" cy="21" r="20" stroke="#45BF55" stroke-width="2"/>
<path fill-rule="evenodd" clip-rule="evenodd" d="M13 12V15H10V29H32V15H29V12H23V15H19V12H13ZM20.275 25.4245L21 26L21.725 25.4245C24.3 23.3886 26 22.0414 26 20.3978C26 19.0507 25.04 18 23.5 18C22.63 18 21.545 18.9463 21 19.5C20.455 18.9463 19.37 18 18.5 18C16.96 18 16 19.0507 16 20.3978C16 22.0414 17.7 23.3886 20.275 25.4245Z" fill="#45BF55"/>
</svg>
