<svg width="48" height="62" viewBox="0 0 48 62" fill="none" xmlns="http://www.w3.org/2000/svg">
<path d="M12.7068 10.695L7.29576 7.905L11.126 0H36.874L40.7346 7.905L35.3236 10.664L33.1349 6.2H14.8955L12.7068 10.695ZM44.1393 18.6H30.3686L27.9671 9.3H20.0633L17.6618 18.6H3.89107L0 26.505L5.44142 29.264L7.66054 24.8H40.3699L42.5586 29.295L48 26.536L44.1393 18.6ZM41.5554 62H35.2628L34.5333 59.21L24.0152 43.09L13.4668 59.21L12.7676 62H6.47499L15.2603 27.9H21.5529L20.4585 32.085L24.0152 37.51L27.5415 32.085L26.4775 27.9H32.7701L41.5554 62ZM22.1913 40.3L19.4554 36.115L15.8683 50.003L22.1913 40.3ZM32.1621 49.972L28.575 36.084L25.8391 40.3L32.1621 49.972Z" fill="#788085"/>
</svg>
