<svg width="48" height="63" viewBox="0 0 48 63" fill="none" xmlns="http://www.w3.org/2000/svg">
<path d="M12.7068 11.195L7.29576 8.405L11.126 0.5H36.874L40.7346 8.405L35.3236 11.164L33.1349 6.7H14.8955L12.7068 11.195ZM44.1393 19.1H30.3686L27.9671 9.8H20.0633L17.6618 19.1H3.89107L0 27.005L5.44142 29.764L7.66054 25.3H40.3699L42.5586 29.795L48 27.036L44.1393 19.1ZM41.5554 62.5H35.2628L34.5333 59.71L24.0152 43.59L13.4668 59.71L12.7676 62.5H6.47499L15.2603 28.4H21.5529L20.4585 32.585L24.0152 38.01L27.5415 32.585L26.4775 28.4H32.7701L41.5554 62.5ZM22.1913 40.8L19.4554 36.615L15.8683 50.503L22.1913 40.8ZM32.1621 50.472L28.575 36.584L25.8391 40.8L32.1621 50.472Z" fill="#1F3D4E"/>
</svg>
