<svg width="62" height="63" viewBox="0 0 62 63" fill="none" xmlns="http://www.w3.org/2000/svg">
<path d="M3.72002 12.978H27.9V0.5H6.19998L3.72002 12.978Z" fill="#FF7144"/>
<path d="M0 31.695H27.9V19.217H2.48003L0 31.695Z" fill="#FF7144"/>
<path d="M62 31.695H33.7125V19.217H59.52L62 31.695Z" fill="#FF7144"/>
<path d="M33.7125 12.978H58.2801L55.8 0.5H33.7125V12.978Z" fill="#FF7144"/>
<path fill-rule="evenodd" clip-rule="evenodd" d="M27.9 35.5879V48.4623H13.95V53.1415H0V57.8208H13.95V62.5H47.6625V57.8208H61.6125V53.1415H47.6625V48.4623H33.7125V35.5879H27.9ZM18.6 53.1415V57.8208H33.7125V53.1415H18.6ZM40.6875 53.1415V57.8208H45.3375V53.1415H40.6875Z" fill="#FF7144"/>
</svg>
