<svg width="64" height="24" viewBox="0 0 64 24" fill="none" xmlns="http://www.w3.org/2000/svg">
<rect width="64" height="24" rx="12" fill="#DCFFE1"/>
<path d="M17.287 10.0696C17.2042 9.80114 17.0898 9.56084 16.944 9.34872C16.8015 9.13329 16.6291 8.94934 16.427 8.79688C16.2281 8.64441 15.9994 8.53007 15.7409 8.45383C15.4824 8.37429 15.2006 8.33452 14.8957 8.33452C14.3488 8.33452 13.8616 8.47206 13.4341 8.74716C13.0065 9.02225 12.6701 9.42661 12.4248 9.96023C12.1829 10.4905 12.0619 11.1368 12.0619 11.8991C12.0619 12.6681 12.1829 13.3194 12.4248 13.853C12.6668 14.3866 13.0032 14.7926 13.4341 15.071C13.8649 15.3461 14.3654 15.4837 14.9355 15.4837C15.4525 15.4837 15.9 15.3842 16.2778 15.1854C16.659 14.9865 16.9523 14.7048 17.1578 14.3402C17.3633 13.9723 17.466 13.5414 17.466 13.0476L17.8836 13.1122H15.1194V11.6705H19.2508V12.8935C19.2508 13.7652 19.0652 14.5192 18.694 15.1555C18.3228 15.7919 17.8124 16.2824 17.1628 16.6271C16.5131 16.9685 15.7674 17.1392 14.9255 17.1392C13.9876 17.1392 13.1639 16.9287 12.4547 16.5078C11.7487 16.0836 11.1968 15.482 10.7991 14.7031C10.4047 13.9209 10.2075 12.9929 10.2075 11.919C10.2075 11.0971 10.3235 10.3629 10.5555 9.71662C10.7908 9.07031 11.119 8.52178 11.5399 8.07102C11.9608 7.61695 12.4547 7.27225 13.0214 7.03693C13.5882 6.7983 14.2047 6.67898 14.8708 6.67898C15.4343 6.67898 15.9596 6.76184 16.4468 6.92756C16.9341 7.08996 17.3666 7.32197 17.7444 7.62358C18.1256 7.92519 18.4388 8.28314 18.6841 8.69744C18.9293 9.11174 19.0901 9.56913 19.1663 10.0696H17.287ZM30.6924 11.9091C30.6924 13.0062 30.4869 13.9458 30.0759 14.728C29.6682 15.5069 29.1114 16.1035 28.4055 16.5178C27.7028 16.9321 26.9057 17.1392 26.0141 17.1392C25.1226 17.1392 24.3238 16.9321 23.6178 16.5178C22.9152 16.1001 22.3583 15.5019 21.9474 14.723C21.5397 13.9408 21.3359 13.0028 21.3359 11.9091C21.3359 10.812 21.5397 9.87405 21.9474 9.09517C22.3583 8.31297 22.9152 7.71473 23.6178 7.30043C24.3238 6.88613 25.1226 6.67898 26.0141 6.67898C26.9057 6.67898 27.7028 6.88613 28.4055 7.30043C29.1114 7.71473 29.6682 8.31297 30.0759 9.09517C30.4869 9.87405 30.6924 10.812 30.6924 11.9091ZM28.838 11.9091C28.838 11.1368 28.717 10.4856 28.4751 9.95526C28.2364 9.42164 27.905 9.01894 27.4807 8.74716C27.0565 8.47206 26.5676 8.33452 26.0141 8.33452C25.4606 8.33452 24.9717 8.47206 24.5475 8.74716C24.1233 9.01894 23.7902 9.42164 23.5482 9.95526C23.3096 10.4856 23.1903 11.1368 23.1903 11.9091C23.1903 12.6813 23.3096 13.3343 23.5482 13.8679C23.7902 14.3982 24.1233 14.8009 24.5475 15.076C24.9717 15.3478 25.4606 15.4837 26.0141 15.4837C26.5676 15.4837 27.0565 15.3478 27.4807 15.076C27.905 14.8009 28.2364 14.3982 28.4751 13.8679C28.717 13.3343 28.838 12.6813 28.838 11.9091ZM42.0942 11.9091C42.0942 13.0062 41.8887 13.9458 41.4777 14.728C41.07 15.5069 40.5132 16.1035 39.8073 16.5178C39.1046 16.9321 38.3075 17.1392 37.4159 17.1392C36.5243 17.1392 35.7256 16.9321 35.0196 16.5178C34.317 16.1001 33.7601 15.5019 33.3492 14.723C32.9415 13.9408 32.7377 13.0028 32.7377 11.9091C32.7377 10.812 32.9415 9.87405 33.3492 9.09517C33.7601 8.31297 34.317 7.71473 35.0196 7.30043C35.7256 6.88613 36.5243 6.67898 37.4159 6.67898C38.3075 6.67898 39.1046 6.88613 39.8073 7.30043C40.5132 7.71473 41.07 8.31297 41.4777 9.09517C41.8887 9.87405 42.0942 10.812 42.0942 11.9091ZM40.2398 11.9091C40.2398 11.1368 40.1188 10.4856 39.8769 9.95526C39.6382 9.42164 39.3068 9.01894 38.8825 8.74716C38.4583 8.47206 37.9694 8.33452 37.4159 8.33452C36.8624 8.33452 36.3735 8.47206 35.9493 8.74716C35.5251 9.01894 35.192 9.42164 34.95 9.95526C34.7114 10.4856 34.5921 11.1368 34.5921 11.9091C34.5921 12.6813 34.7114 13.3343 34.95 13.8679C35.192 14.3982 35.5251 14.8009 35.9493 15.076C36.3735 15.3478 36.8624 15.4837 37.4159 15.4837C37.9694 15.4837 38.4583 15.3478 38.8825 15.076C39.3068 14.8009 39.6382 14.3982 39.8769 13.8679C40.1188 13.3343 40.2398 12.6813 40.2398 11.9091ZM47.8483 17H44.398V6.81818H47.9179C48.9287 6.81818 49.7971 7.02202 50.523 7.42969C51.2521 7.83404 51.8123 8.41572 52.2034 9.17472C52.5945 9.93371 52.79 10.8419 52.79 11.8991C52.79 12.9598 52.5928 13.8712 52.1984 14.6335C51.8073 15.3958 51.2422 15.9808 50.5031 16.3885C49.7673 16.7962 48.8823 17 47.8483 17ZM46.2424 15.4041H47.7588C48.468 15.4041 49.0597 15.2749 49.5336 15.0163C50.0076 14.7545 50.3639 14.3651 50.6025 13.848C50.8412 13.3277 50.9605 12.678 50.9605 11.8991C50.9605 11.1203 50.8412 10.474 50.6025 9.96023C50.3639 9.44318 50.0109 9.05706 49.5436 8.80185C49.0796 8.54332 48.5028 8.41406 47.8135 8.41406H46.2424V15.4041Z" fill="#45BF55"/>
</svg>
