<svg width="32" height="32" viewBox="0 0 32 32" fill="none" xmlns="http://www.w3.org/2000/svg">
<path d="M19.4286 6.00795V9.72537C20.3988 10.1577 21.2903 10.7755 22.0617 11.5631C23.68 13.2153 24.5714 15.4135 24.5714 17.7518C24.5714 20.09 23.68 22.2865 22.0617 23.9405C20.4434 25.5926 18.2903 26.5028 16 26.5028C13.7097 26.5028 11.5583 25.5926 9.9383 23.9405C8.32002 22.2883 7.42859 20.09 7.42859 17.7518C7.42859 15.4135 8.32002 13.217 9.9383 11.5631C10.7097 10.7755 11.6012 10.1577 12.5714 9.72537V6.00795C9.80917 6.84875 7.43562 8.67657 5.88483 11.1572C4.33403 13.6378 3.70961 16.6054 4.12574 19.5174C4.54188 22.4293 5.97076 25.0911 8.15111 27.0159C10.3315 28.9407 13.1176 30 16 30C18.8824 30 21.6685 28.9407 23.8489 27.0159C26.0292 25.0911 27.4581 22.4293 27.8743 19.5174C28.2904 16.6054 27.666 13.6378 26.1152 11.1572C24.5644 8.67657 22.1908 6.84875 19.4286 6.00795ZM14.2857 2H17.7143V16.0016H14.2857V2Z" fill="white"/>
</svg>
