<?xml version="1.0" encoding="UTF-8"?>
<svg id="Layer_1" data-name="Layer 1" xmlns="http://www.w3.org/2000/svg" version="1.1" viewBox="0 0 300 300">
  <defs>
    <style>
      .cls-1 {
        fill: #aac760;
        stroke-width: 0px;
      }
    </style>
  </defs>
  <path class="cls-1" d="M258,71.6l-92.1-50.5c-9.9-5.5-21.8-5.5-31.7,0l-92.1,50.5c-10.5,5.8-17.1,16.9-17.1,28.9v98.9c0,12,6.5,23.1,17.1,28.9l92.1,50.5c4.9,2.7,10.4,4.1,16,4.1s11.1-1.4,15.7-4.1l92.1-50.5c10.5-5.8,17.1-16.9,17.1-28.9v-99c0-12-6.5-23.1-17.1-28.9h0ZM261.6,100.5v98.9c0,7.2-3.8,13.8-10,17.2l-92.1,50.5c-5.9,3.2-13,3.2-18.9,0l-92.1-50.5c-6.2-3.5-10.1-10.1-10.1-17.2v-99c0-7.2,3.8-13.8,10-17.2l92.1-50.5c3.1-1.7,6.2-2.5,9.6-2.5s6.5.8,9.3,2.5l91.8,50.5c6.4,3.4,10.3,10,10.3,17.2h0Z"/>
  <path class="cls-1" d="M96.2,121.7c-14.6,0-27,12.4-27,27s12.1,27,27,27,14.3-3,18.9-8.1c2.7-2.7,2.7-6.7,0-9.4-2.7-2.7-6.7-2.7-9.5,0-2.3,2.5-5.8,4-9.4,4-7.5,0-13.5-6.1-13.5-13.5s6.1-13.5,13.5-13.5,8.2,1.7,10.7,5c2.3,3,6.4,3.4,9.4,1,3-2.3,3.4-6.4,1-9.4-5.3-6.4-12.8-10-21.1-10h0Z"/>
  <path class="cls-1" d="M150.4,123.3c-14.4,0-26.2,11.8-26.2,26.2s11.8,26.2,26.2,26.2,26.2-11.8,26.2-26.2-11.8-26.2-26.2-26.2ZM150.4,162.2c-7,0-12.7-5.7-12.7-12.7s5.7-12.7,12.7-12.7,12.7,5.7,12.7,12.7-5.7,12.7-12.7,12.7Z"/>
  <path class="cls-1" d="M209.2,159.7c8.3-4.8,16.9-9.8,16.9-19.2s-9.1-17.2-21.2-17.2-21.1,7.1-21.5,17.2c0,3.7,3,6.7,6.7,6.7s6.7-3,6.7-6.7,7.7-4.1,7.8-4.1c3.1,0,7.8,1.2,7.8,3.8-.2,1.6-7.4,5.8-10.1,7.4l-.4.3c-8.2,4.8-18.4,10.7-18.4,21s3,6.7,6.7,6.7h28.4c3.5,0,6.6-2.8,7-6.4,0-3.7-3-6.7-6.7-6.7h-14.5c1.3-.8,2.8-1.6,4.5-2.6l.4-.2h0Z"/>
</svg>