<svg width="111" height="32" viewBox="0 0 111 32" fill="none" xmlns="http://www.w3.org/2000/svg">
<rect width="111" height="32" rx="16" fill="#FFF3DF"/>
<path d="M16.6101 21H13.1598V10.8182H16.6797C17.6905 10.8182 18.5589 11.022 19.2848 11.4297C20.0139 11.834 20.5741 12.4157 20.9652 13.1747C21.3563 13.9337 21.5518 14.8419 21.5518 15.8991C21.5518 16.9598 21.3546 17.8712 20.9602 18.6335C20.5691 19.3958 20.004 19.9808 19.2649 20.3885C18.5291 20.7962 17.6441 21 16.6101 21ZM15.0042 19.4041H16.5206C17.2298 19.4041 17.8215 19.2749 18.2954 19.0163C18.7694 18.7545 19.1257 18.3651 19.3643 17.848C19.6029 17.3277 19.7223 16.678 19.7223 15.8991C19.7223 15.1203 19.6029 14.474 19.3643 13.9602C19.1257 13.4432 18.7727 13.0571 18.3054 12.8018C17.8413 12.5433 17.2646 12.4141 16.5753 12.4141H15.0042V19.4041ZM25.7088 10.8182V21H23.8643V10.8182H25.7088ZM33.7995 13.6172C33.7531 13.183 33.5575 12.8449 33.2128 12.603C32.8714 12.361 32.4273 12.2401 31.8804 12.2401C31.496 12.2401 31.1662 12.2981 30.8911 12.4141C30.616 12.5301 30.4055 12.6875 30.2597 12.8864C30.1139 13.0852 30.0393 13.3123 30.036 13.5675C30.036 13.7796 30.084 13.9635 30.1802 14.1193C30.2796 14.2751 30.4138 14.4077 30.5829 14.517C30.7519 14.6231 30.9392 14.7126 31.1446 14.7855C31.3501 14.8584 31.5573 14.9197 31.7661 14.9695L32.7206 15.2081C33.1051 15.2976 33.4747 15.4186 33.8293 15.571C34.1873 15.7235 34.5071 15.9157 34.7888 16.1477C35.0739 16.3797 35.2992 16.6598 35.465 16.9879C35.6307 17.3161 35.7135 17.7005 35.7135 18.1413C35.7135 18.7379 35.5611 19.2633 35.2562 19.7173C34.9512 20.1681 34.5104 20.5211 33.9337 20.7763C33.3603 21.0282 32.666 21.1541 31.8506 21.1541C31.0585 21.1541 30.3707 21.0315 29.7874 20.7862C29.2074 20.541 28.7533 20.183 28.4252 19.7124C28.1004 19.2417 27.9247 18.6683 27.8982 17.9922H29.7128C29.7393 18.3468 29.8487 18.6418 30.041 18.8771C30.2332 19.1125 30.4834 19.2881 30.7917 19.4041C31.1032 19.5201 31.4512 19.5781 31.8357 19.5781C32.2367 19.5781 32.5881 19.5185 32.8897 19.3991C33.1946 19.2765 33.4332 19.1075 33.6056 18.892C33.7779 18.6733 33.8658 18.4181 33.8691 18.1264C33.8658 17.8613 33.7879 17.6425 33.6354 17.4702C33.483 17.2945 33.2692 17.1487 32.9941 17.0327C32.7223 16.9134 32.4041 16.8073 32.0395 16.7145L30.8812 16.4162C30.0426 16.2008 29.3797 15.8743 28.8925 15.4368C28.4086 14.996 28.1667 14.411 28.1667 13.6818C28.1667 13.0819 28.3291 12.5566 28.6539 12.1058C28.982 11.6551 29.4278 11.3054 29.9912 11.0568C30.5547 10.8049 31.1927 10.679 31.9053 10.679C32.6278 10.679 33.2609 10.8049 33.8044 11.0568C34.3513 11.3054 34.7805 11.6518 35.0921 12.0959C35.4036 12.5367 35.5644 13.0438 35.5743 13.6172H33.7995ZM46.6331 14.2536H44.7737C44.7207 13.9486 44.6229 13.6785 44.4804 13.4432C44.3379 13.2045 44.1606 13.0024 43.9484 12.8366C43.7363 12.6709 43.4944 12.5466 43.2226 12.4638C42.9541 12.3776 42.6641 12.3345 42.3526 12.3345C41.799 12.3345 41.3085 12.4737 40.881 12.7521C40.4534 13.0272 40.1187 13.4316 39.8767 13.9652C39.6347 14.4955 39.5138 15.1435 39.5138 15.9091C39.5138 16.688 39.6347 17.3442 39.8767 17.8778C40.122 18.4081 40.4567 18.8092 40.881 19.081C41.3085 19.3494 41.7974 19.4837 42.3476 19.4837C42.6525 19.4837 42.9375 19.4439 43.2027 19.3643C43.4712 19.2815 43.7115 19.1605 43.9236 19.0014C44.139 18.8423 44.3196 18.6468 44.4655 18.4148C44.6146 18.1828 44.7174 17.9176 44.7737 17.6193L46.6331 17.6293C46.5635 18.1132 46.4127 18.5672 46.1807 18.9915C45.952 19.4157 45.652 19.7902 45.2808 20.1151C44.9096 20.4366 44.4754 20.6884 43.9783 20.8707C43.4811 21.0497 42.9293 21.1392 42.3227 21.1392C41.4278 21.1392 40.6291 20.9321 39.9264 20.5178C39.2238 20.1035 38.6703 19.5052 38.2659 18.723C37.8615 17.9408 37.6594 17.0028 37.6594 15.9091C37.6594 14.812 37.8632 13.8741 38.2709 13.0952C38.6785 12.313 39.2337 11.7147 39.9364 11.3004C40.639 10.8861 41.4345 10.679 42.3227 10.679C42.8895 10.679 43.4165 10.7585 43.9037 10.9176C44.3909 11.0767 44.8251 11.3104 45.2062 11.6186C45.5874 11.9235 45.9006 12.2981 46.1459 12.7422C46.3945 13.183 46.5569 13.6868 46.6331 14.2536ZM48.8822 21V10.8182H50.7267V15.1286H55.4447V10.8182H57.2941V21H55.4447V16.6747H50.7267V21H48.8822ZM61.1677 21H59.1989L62.7835 10.8182H65.0604L68.6499 21H66.6812L63.9617 12.9062H63.8822L61.1677 21ZM61.2323 17.0078H66.6016V18.4893H61.2323V17.0078ZM70.551 21V10.8182H74.3692C75.1514 10.8182 75.8076 10.9541 76.338 11.2259C76.8716 11.4976 77.2743 11.8788 77.546 12.3693C77.8211 12.8565 77.9587 13.425 77.9587 14.0746C77.9587 14.7275 77.8195 15.2943 77.5411 15.7749C77.266 16.2521 76.86 16.6217 76.323 16.8835C75.7861 17.142 75.1265 17.2713 74.3443 17.2713H71.6249V15.7401H74.0958C74.5531 15.7401 74.9277 15.6771 75.2193 15.5511C75.511 15.4219 75.7264 15.2346 75.8656 14.9893C76.0082 14.7408 76.0794 14.4358 76.0794 14.0746C76.0794 13.7133 76.0082 13.4051 75.8656 13.1499C75.7231 12.8913 75.506 12.6958 75.2144 12.5632C74.9227 12.4273 74.5465 12.3594 74.0858 12.3594H72.3955V21H70.551ZM75.811 16.3864L78.3316 21H76.2733L73.7975 16.3864H75.811ZM87.0375 14.0696C86.9546 13.8011 86.8403 13.5608 86.6945 13.3487C86.5519 13.1333 86.3796 12.9493 86.1774 12.7969C85.9786 12.6444 85.7499 12.5301 85.4913 12.4538C85.2328 12.3743 84.9511 12.3345 84.6462 12.3345C84.0993 12.3345 83.6121 12.4721 83.1845 12.7472C82.757 13.0223 82.4206 13.4266 82.1753 13.9602C81.9333 14.4905 81.8124 15.1368 81.8124 15.8991C81.8124 16.6681 81.9333 17.3194 82.1753 17.853C82.4172 18.3866 82.7536 18.7926 83.1845 19.071C83.6154 19.3461 84.1159 19.4837 84.6859 19.4837C85.203 19.4837 85.6504 19.3842 86.0283 19.1854C86.4094 18.9865 86.7027 18.7048 86.9082 18.3402C87.1137 17.9723 87.2165 17.5414 87.2165 17.0476L87.6341 17.1122H84.8699V15.6705H89.0013V16.8935C89.0013 17.7652 88.8157 18.5192 88.4445 19.1555C88.0733 19.7919 87.5628 20.2824 86.9132 20.6271C86.2636 20.9685 85.5179 21.1392 84.676 21.1392C83.738 21.1392 82.9144 20.9287 82.2051 20.5078C81.4992 20.0836 80.9473 19.482 80.5496 18.7031C80.1552 17.9209 79.958 16.9929 79.958 15.919C79.958 15.0971 80.074 14.3629 80.306 13.7166C80.5413 13.0703 80.8694 12.5218 81.2903 12.071C81.7113 11.617 82.2051 11.2723 82.7719 11.0369C83.3386 10.7983 83.9551 10.679 84.6213 10.679C85.1848 10.679 85.7101 10.7618 86.1973 10.9276C86.6845 11.09 87.117 11.322 87.4949 11.6236C87.876 11.9252 88.1893 12.2831 88.4345 12.6974C88.6798 13.1117 88.8405 13.5691 88.9168 14.0696H87.0375ZM91.3449 21V10.8182H97.967V12.3643H93.1893V15.1286H97.624V16.6747H93.1893V19.4538H98.0068V21H91.3449Z" fill="#F59E0B"/>
<path d="M16.6101 21H13.1598V10.8182H16.6797C17.6905 10.8182 18.5589 11.022 19.2848 11.4297C20.0139 11.834 20.5741 12.4157 20.9652 13.1747C21.3563 13.9337 21.5518 14.8419 21.5518 15.8991C21.5518 16.9598 21.3546 17.8712 20.9602 18.6335C20.5691 19.3958 20.004 19.9808 19.2649 20.3885C18.5291 20.7962 17.6441 21 16.6101 21ZM15.0042 19.4041H16.5206C17.2298 19.4041 17.8215 19.2749 18.2954 19.0163C18.7694 18.7545 19.1257 18.3651 19.3643 17.848C19.6029 17.3277 19.7223 16.678 19.7223 15.8991C19.7223 15.1203 19.6029 14.474 19.3643 13.9602C19.1257 13.4432 18.7727 13.0571 18.3054 12.8018C17.8413 12.5433 17.2646 12.4141 16.5753 12.4141H15.0042V19.4041ZM25.7088 10.8182V21H23.8643V10.8182H25.7088ZM33.7995 13.6172C33.7531 13.183 33.5575 12.8449 33.2128 12.603C32.8714 12.361 32.4273 12.2401 31.8804 12.2401C31.496 12.2401 31.1662 12.2981 30.8911 12.4141C30.616 12.5301 30.4055 12.6875 30.2597 12.8864C30.1139 13.0852 30.0393 13.3123 30.036 13.5675C30.036 13.7796 30.084 13.9635 30.1802 14.1193C30.2796 14.2751 30.4138 14.4077 30.5829 14.517C30.7519 14.6231 30.9392 14.7126 31.1446 14.7855C31.3501 14.8584 31.5573 14.9197 31.7661 14.9695L32.7206 15.2081C33.1051 15.2976 33.4747 15.4186 33.8293 15.571C34.1873 15.7235 34.5071 15.9157 34.7888 16.1477C35.0739 16.3797 35.2992 16.6598 35.465 16.9879C35.6307 17.3161 35.7135 17.7005 35.7135 18.1413C35.7135 18.7379 35.5611 19.2633 35.2562 19.7173C34.9512 20.1681 34.5104 20.5211 33.9337 20.7763C33.3603 21.0282 32.666 21.1541 31.8506 21.1541C31.0585 21.1541 30.3707 21.0315 29.7874 20.7862C29.2074 20.541 28.7533 20.183 28.4252 19.7124C28.1004 19.2417 27.9247 18.6683 27.8982 17.9922H29.7128C29.7393 18.3468 29.8487 18.6418 30.041 18.8771C30.2332 19.1125 30.4834 19.2881 30.7917 19.4041C31.1032 19.5201 31.4512 19.5781 31.8357 19.5781C32.2367 19.5781 32.5881 19.5185 32.8897 19.3991C33.1946 19.2765 33.4332 19.1075 33.6056 18.892C33.7779 18.6733 33.8658 18.4181 33.8691 18.1264C33.8658 17.8613 33.7879 17.6425 33.6354 17.4702C33.483 17.2945 33.2692 17.1487 32.9941 17.0327C32.7223 16.9134 32.4041 16.8073 32.0395 16.7145L30.8812 16.4162C30.0426 16.2008 29.3797 15.8743 28.8925 15.4368C28.4086 14.996 28.1667 14.411 28.1667 13.6818C28.1667 13.0819 28.3291 12.5566 28.6539 12.1058C28.982 11.6551 29.4278 11.3054 29.9912 11.0568C30.5547 10.8049 31.1927 10.679 31.9053 10.679C32.6278 10.679 33.2609 10.8049 33.8044 11.0568C34.3513 11.3054 34.7805 11.6518 35.0921 12.0959C35.4036 12.5367 35.5644 13.0438 35.5743 13.6172H33.7995ZM46.6331 14.2536H44.7737C44.7207 13.9486 44.6229 13.6785 44.4804 13.4432C44.3379 13.2045 44.1606 13.0024 43.9484 12.8366C43.7363 12.6709 43.4944 12.5466 43.2226 12.4638C42.9541 12.3776 42.6641 12.3345 42.3526 12.3345C41.799 12.3345 41.3085 12.4737 40.881 12.7521C40.4534 13.0272 40.1187 13.4316 39.8767 13.9652C39.6347 14.4955 39.5138 15.1435 39.5138 15.9091C39.5138 16.688 39.6347 17.3442 39.8767 17.8778C40.122 18.4081 40.4567 18.8092 40.881 19.081C41.3085 19.3494 41.7974 19.4837 42.3476 19.4837C42.6525 19.4837 42.9375 19.4439 43.2027 19.3643C43.4712 19.2815 43.7115 19.1605 43.9236 19.0014C44.139 18.8423 44.3196 18.6468 44.4655 18.4148C44.6146 18.1828 44.7174 17.9176 44.7737 17.6193L46.6331 17.6293C46.5635 18.1132 46.4127 18.5672 46.1807 18.9915C45.952 19.4157 45.652 19.7902 45.2808 20.1151C44.9096 20.4366 44.4754 20.6884 43.9783 20.8707C43.4811 21.0497 42.9293 21.1392 42.3227 21.1392C41.4278 21.1392 40.6291 20.9321 39.9264 20.5178C39.2238 20.1035 38.6703 19.5052 38.2659 18.723C37.8615 17.9408 37.6594 17.0028 37.6594 15.9091C37.6594 14.812 37.8632 13.8741 38.2709 13.0952C38.6785 12.313 39.2337 11.7147 39.9364 11.3004C40.639 10.8861 41.4345 10.679 42.3227 10.679C42.8895 10.679 43.4165 10.7585 43.9037 10.9176C44.3909 11.0767 44.8251 11.3104 45.2062 11.6186C45.5874 11.9235 45.9006 12.2981 46.1459 12.7422C46.3945 13.183 46.5569 13.6868 46.6331 14.2536ZM48.8822 21V10.8182H50.7267V15.1286H55.4447V10.8182H57.2941V21H55.4447V16.6747H50.7267V21H48.8822ZM61.1677 21H59.1989L62.7835 10.8182H65.0604L68.6499 21H66.6812L63.9617 12.9062H63.8822L61.1677 21ZM61.2323 17.0078H66.6016V18.4893H61.2323V17.0078ZM70.551 21V10.8182H74.3692C75.1514 10.8182 75.8076 10.9541 76.338 11.2259C76.8716 11.4976 77.2743 11.8788 77.546 12.3693C77.8211 12.8565 77.9587 13.425 77.9587 14.0746C77.9587 14.7275 77.8195 15.2943 77.5411 15.7749C77.266 16.2521 76.86 16.6217 76.323 16.8835C75.7861 17.142 75.1265 17.2713 74.3443 17.2713H71.6249V15.7401H74.0958C74.5531 15.7401 74.9277 15.6771 75.2193 15.5511C75.511 15.4219 75.7264 15.2346 75.8656 14.9893C76.0082 14.7408 76.0794 14.4358 76.0794 14.0746C76.0794 13.7133 76.0082 13.4051 75.8656 13.1499C75.7231 12.8913 75.506 12.6958 75.2144 12.5632C74.9227 12.4273 74.5465 12.3594 74.0858 12.3594H72.3955V21H70.551ZM75.811 16.3864L78.3316 21H76.2733L73.7975 16.3864H75.811ZM87.0375 14.0696C86.9546 13.8011 86.8403 13.5608 86.6945 13.3487C86.5519 13.1333 86.3796 12.9493 86.1774 12.7969C85.9786 12.6444 85.7499 12.5301 85.4913 12.4538C85.2328 12.3743 84.9511 12.3345 84.6462 12.3345C84.0993 12.3345 83.6121 12.4721 83.1845 12.7472C82.757 13.0223 82.4206 13.4266 82.1753 13.9602C81.9333 14.4905 81.8124 15.1368 81.8124 15.8991C81.8124 16.6681 81.9333 17.3194 82.1753 17.853C82.4172 18.3866 82.7536 18.7926 83.1845 19.071C83.6154 19.3461 84.1159 19.4837 84.6859 19.4837C85.203 19.4837 85.6504 19.3842 86.0283 19.1854C86.4094 18.9865 86.7027 18.7048 86.9082 18.3402C87.1137 17.9723 87.2165 17.5414 87.2165 17.0476L87.6341 17.1122H84.8699V15.6705H89.0013V16.8935C89.0013 17.7652 88.8157 18.5192 88.4445 19.1555C88.0733 19.7919 87.5628 20.2824 86.9132 20.6271C86.2636 20.9685 85.5179 21.1392 84.676 21.1392C83.738 21.1392 82.9144 20.9287 82.2051 20.5078C81.4992 20.0836 80.9473 19.482 80.5496 18.7031C80.1552 17.9209 79.958 16.9929 79.958 15.919C79.958 15.0971 80.074 14.3629 80.306 13.7166C80.5413 13.0703 80.8694 12.5218 81.2903 12.071C81.7113 11.617 82.2051 11.2723 82.7719 11.0369C83.3386 10.7983 83.9551 10.679 84.6213 10.679C85.1848 10.679 85.7101 10.7618 86.1973 10.9276C86.6845 11.09 87.117 11.322 87.4949 11.6236C87.876 11.9252 88.1893 12.2831 88.4345 12.6974C88.6798 13.1117 88.8405 13.5691 88.9168 14.0696H87.0375ZM91.3449 21V10.8182H97.967V12.3643H93.1893V15.1286H97.624V16.6747H93.1893V19.4538H98.0068V21H91.3449Z" fill="#F59E0B"/>
</svg>
