<svg width="42" height="42" viewBox="0 0 42 42" fill="none" xmlns="http://www.w3.org/2000/svg">
<circle cx="21" cy="21" r="21" fill="#F0F0F1"/>
<path d="M20.9998 9C13.6365 9 7.66653 15.0885 7.66653 22.6051C7.65956 25.9242 8.85093 29.1321 11.0176 31.6283C11.0832 31.7012 11.1426 31.7741 11.2082 31.8409C11.7332 32.3333 11.8926 32.3333 12.3093 32.3333C12.726 32.3333 12.9999 32.3333 13.4165 31.8353C15.2221 29.6769 17.9998 28.7436 20.9998 28.7436C23.9998 28.7436 26.7815 29.6808 28.5832 31.8353C28.9998 32.3333 29.2676 32.3333 29.6904 32.3333C30.1131 32.3333 30.3181 32.3333 30.7915 31.8409C30.8593 31.7708 30.9165 31.7012 30.982 31.6283C33.1487 29.1321 34.3401 25.9242 34.3331 22.6051C34.3331 15.0885 28.3632 9 20.9998 9ZM20.1109 12.5897H21.8887V16.1795H20.1109V12.5897ZM14.7776 23.359H11.2221V21.5641H14.7776V23.359ZM15.9715 18.6542L13.4576 16.1155L14.7143 14.8468L17.2287 17.3849L15.9715 18.6542ZM22.2554 23.5497C22.1474 23.7007 22.0161 23.8333 21.8665 23.9423C21.5053 24.1967 21.0593 24.297 20.6252 24.2215C20.1912 24.146 19.8042 23.9007 19.5482 23.5388C19.2922 23.177 19.1879 22.7278 19.2579 22.2888C19.3279 21.8498 19.5665 21.4564 19.9221 21.1939L24.5554 18.8718L22.2554 23.5497ZM24.7709 17.3849L27.2854 14.8468L28.542 16.1155L26.0282 18.6542L24.7709 17.3849ZM30.7776 23.359H27.222V21.5641H30.7776V23.359Z" fill="#788085"/>
</svg>
