<?xml version="1.0" encoding="UTF-8"?>
<svg id="Layer_1" data-name="Layer 1" xmlns="http://www.w3.org/2000/svg" version="1.1" viewBox="0 0 300 300">
  <defs>
    <style>
      .cls-1 {
        fill: #1f3d4e;
        stroke-width: 0px;
      }
    </style>
  </defs>
  <path class="cls-1" d="M266,66.6l-48-40c-2.9-2.4-7.2-2-9.6.9s-2,7.2.9,9.6l42.2,35.2-2.2,1.7c-3.9,3.1-6.1,7.6-6.1,12.4,0,8.8,7.1,15.9,15.9,15.9h2.3v84.1c0,11.3-9.2,20.4-20.4,20.4s-20.4-9.2-20.4-20.4v-45.5c0-13.8-11.2-25-25-25h-11.4v-56.8c0-18.8-15.3-34.1-34.1-34.1h-72.7c-18.8,0-34.1,15.3-34.1,34.1v179.7l-17,25.6c-1.4,2.1-1.5,4.8-.3,7,1.2,2.2,3.5,3.6,6,3.6h163.6c2.5,0,4.8-1.4,6-3.6,1.2-2.2,1.1-4.9-.3-7l-17-25.6v-109.3h11.4c6.3,0,11.4,5.1,11.4,11.4v45.5c0,18.8,15.3,34.1,34.1,34.1s34.1-15.3,34.1-34.1v-100.6c0-7.4-3.3-14.4-9-19.2M182.7,261.3H44.6l11.1-16.7c.8-1.1,1.1-2.4,1.1-3.8V59.1c0-11.3,9.2-20.4,20.4-20.4h72.7c11.3,0,20.4,9.2,20.4,20.4v181.8c0,1.3.4,2.7,1.1,3.8l11.1,16.7h0Z"/>
  <path class="cls-1" d="M122.7,79.5c-1.7,0-3.5.7-4.8,2l-36.4,36.4c-2,2-2.5,4.9-1.5,7.4,1.1,2.6,3.5,4.2,6.3,4.2h38.1l-24.7,24.7c-2.7,2.7-2.7,7,0,9.6s7,2.7,9.6,0l36.4-36.4c2-2,2.5-4.9,1.5-7.4h0c-1.1-2.6-3.5-4.2-6.3-4.2h-38.1l24.7-24.7c2.7-2.7,2.7-7,0-9.6s-3.1-2-4.8-2h0Z"/>
</svg>