<?xml version="1.0" encoding="UTF-8"?>
<svg id="Layer_1" data-name="Layer 1" xmlns="http://www.w3.org/2000/svg" version="1.1" viewBox="0 0 300 300">
  <defs>
    <style>
      .cls-1 {
        stroke: #90abb5;
        stroke-miterlimit: 10;
        stroke-width: 7px;
      }

      .cls-1, .cls-2 {
        fill: #90abb5;
      }

      .cls-3 {
        fill: #fff;
      }

      .cls-3, .cls-2 {
        stroke-width: 0px;
      }
    </style>
  </defs>
  <path class="cls-2" d="M150,211.3c11.1,0,20.1-11.2,20.1-25.1s-9-25.1-20.1-25.1-20.1,11.2-20.1,25.1,9,25.1,20.1,25.1ZM150,166.7c8,0,14.5,8.8,14.5,19.5s-6.5,19.5-14.5,19.5-14.5-8.8-14.5-19.5,6.5-19.5,14.5-19.5Z"/>
  <path class="cls-2" d="M77.2,197c6,1.7,12.1-1.8,13.8-7.8.5-2,.5-4,0-6-1-3.8-4-6.7-7.7-7.7-6-1.7-12.1,1.8-13.8,7.8-.5,2-.5,4,0,6,1,3.7,3.9,6.6,7.7,7.7ZM80.2,180.6c3.1,0,5.6,2.5,5.6,5.6s-2.5,5.6-5.6,5.6-5.6-2.5-5.6-5.6,2.5-5.6,5.6-5.6Z"/>
  <path class="cls-2" d="M222,197.1c5.3-1.2,9-6,8.9-11.4h0c0-3.7-1.8-7.1-5-9-5.3-3.3-12.3-1.7-15.6,3.6-1.1,1.8-1.7,3.8-1.7,5.9,0,6.2,5,11.2,11.2,11.2s1.5,0,2.2-.3h0ZM219.8,180.6c3.1,0,5.6,2.5,5.6,5.6s-2.5,5.6-5.6,5.6-5.6-2.5-5.6-5.6,2.5-5.6,5.6-5.6Z"/>
  <g>
    <path class="cls-1" d="M240.7,96.6l4.4,22.4h5.7l-5.7-28.9-145.3,28.9q-.2,0,0,0h28.4l112.5-22.5h0Z"/>
    <path class="cls-1" d="M200.7,66.3l7.5,17.2,5.6-1.1-10-23.4L57.1,119q0,0,0,0h14.6l129-52.8h0Z"/>
    <path class="cls-1" d="M272.8,130.4H27.2v111.6h245.6v-111.6h0ZM267.2,236.4H32.8v-100.4h234.4v100.4h0Z"/>
  </g>
  <polygon class="cls-2" points="247.7 147.1 55.1 147.1 44 158.3 44 214.1 49.6 219.7 49.6 219.7 49.6 219.7 55.2 225.3 247.7 225.3 256.1 216.9 256.1 155.5 247.7 147.1"/>
  <g>
    <ellipse class="cls-3" cx="150" cy="186.8" rx="23.3" ry="34.1"/>
    <circle class="cls-3" cx="78.3" cy="186.8" r="12"/>
    <circle class="cls-3" cx="221.7" cy="186.2" r="12"/>
  </g>
</svg>