<svg width="54" height="32" viewBox="0 0 54 32" fill="none" xmlns="http://www.w3.org/2000/svg">
<rect width="54" height="32" rx="16" fill="#FFD6D6"/>
<path d="M23.4182 15.9091C23.4182 17.0062 23.2128 17.9458 22.8018 18.728C22.3941 19.5069 21.8373 20.1035 21.1313 20.5178C20.4287 20.9321 19.6316 21.1392 18.74 21.1392C17.8484 21.1392 17.0496 20.9321 16.3437 20.5178C15.641 20.1001 15.0842 19.5019 14.6732 18.723C14.2656 17.9408 14.0617 17.0028 14.0617 15.9091C14.0617 14.812 14.2656 13.8741 14.6732 13.0952C15.0842 12.313 15.641 11.7147 16.3437 11.3004C17.0496 10.8861 17.8484 10.679 18.74 10.679C19.6316 10.679 20.4287 10.8861 21.1313 11.3004C21.8373 11.7147 22.3941 12.313 22.8018 13.0952C23.2128 13.8741 23.4182 14.812 23.4182 15.9091ZM21.5638 15.9091C21.5638 15.1368 21.4429 14.4856 21.2009 13.9553C20.9623 13.4216 20.6308 13.0189 20.2066 12.7472C19.7824 12.4721 19.2935 12.3345 18.74 12.3345C18.1865 12.3345 17.6976 12.4721 17.2734 12.7472C16.8491 13.0189 16.516 13.4216 16.2741 13.9553C16.0354 14.4856 15.9161 15.1368 15.9161 15.9091C15.9161 16.6813 16.0354 17.3343 16.2741 17.8679C16.516 18.3982 16.8491 18.8009 17.2734 19.076C17.6976 19.3478 18.1865 19.4837 18.74 19.4837C19.2935 19.4837 19.7824 19.3478 20.2066 19.076C20.6308 18.8009 20.9623 18.3982 21.2009 17.8679C21.4429 17.3343 21.5638 16.6813 21.5638 15.9091ZM25.722 21V10.8182H32.2448V12.3643H27.5665V15.1286H31.7973V16.6747H27.5665V21H25.722ZM34.4852 21V10.8182H41.0079V12.3643H36.3296V15.1286H40.5604V16.6747H36.3296V21H34.4852Z" fill="#FF2626"/>
</svg>
