<svg width="42" height="42" viewBox="0 0 42 42" fill="none" xmlns="http://www.w3.org/2000/svg">
<circle cx="21" cy="21" r="20" stroke="#1F3D4E" stroke-width="2"/>
<path d="M20.3332 31.6665L26.8132 18.6932H22.3332V10.3332L15.6665 23.3065H20.3332V31.6665ZM20.9998 7.6665C24.6665 7.6665 27.7998 8.99984 30.3998 11.5998C32.9998 14.1998 34.3332 17.3332 34.3332 20.9998C34.3332 24.6665 32.9998 27.7998 30.3998 30.3998C27.7998 32.9998 24.6665 34.3332 20.9998 34.3332C17.3332 34.3332 14.1998 32.9998 11.5998 30.3998C8.99984 27.7998 7.6665 24.6665 7.6665 20.9998C7.6665 17.3332 8.99984 14.1998 11.5998 11.5998C14.1998 8.99984 17.3332 7.6665 20.9998 7.6665Z" fill="#1F3D4E"/>
</svg>
