<svg width="42" height="42" viewBox="0 0 42 42" fill="none" xmlns="http://www.w3.org/2000/svg">
<circle cx="21" cy="21" r="21" fill="#F0F0F1"/>
<path d="M20.3332 31.6666L26.8132 18.6933H22.3332V10.3333L15.6665 23.3066H20.3332V31.6666ZM20.9998 7.66663C24.6665 7.66663 27.7998 8.99996 30.3998 11.6C32.9998 14.2 34.3332 17.3333 34.3332 21C34.3332 24.6666 32.9998 27.8 30.3998 30.4C27.7998 33 24.6665 34.3333 20.9998 34.3333C17.3332 34.3333 14.1998 33 11.5998 30.4C8.99984 27.8 7.6665 24.6666 7.6665 21C7.6665 17.3333 8.99984 14.2 11.5998 11.6C14.1998 8.99996 17.3332 7.66663 20.9998 7.66663Z" fill="#788085"/>
</svg>
